<svg width="36" height="37" viewBox="0 0 36 37" fill="none" xmlns="http://www.w3.org/2000/svg">
<path d="M0.425189 35.3022C0.425189 34.5801 1.01601 34.0057 1.7217 34.0057H3.01822V4.20222C3.01822 1.51072 4.44603 0.0336797 7.15394 0.0336797H22.0392C24.7307 0.0336797 26.2078 1.51072 26.2078 4.20222V19.3337H26.3719C28.5711 19.3337 29.9168 20.6302 29.9168 22.895V28.3273C29.9168 29.2135 30.442 29.7551 31.3282 29.7551C32.198 29.7551 32.7396 29.2135 32.7396 28.3273V16.314L29.9825 13.1137C29.2439 12.2439 29.1455 11.3249 29.8512 10.3566L32.0011 7.35325C32.198 7.05784 32.2144 6.7132 32.0339 6.41779L30.0973 3.29959C29.2768 1.95384 31.2297 0.755789 32.0667 2.08513L34.3151 5.7285C34.791 6.48343 35.0536 7.23837 35.0536 8.22306V28.3273C35.0536 30.6577 33.6586 32.0691 31.3282 32.0691C28.9978 32.0691 27.5864 30.6577 27.5864 28.3273V22.895C27.5864 22.0744 27.1268 21.6477 26.3719 21.6477H26.2078V34.0057H27.4715C28.1936 34.0057 28.7844 34.5965 28.7844 35.3022C28.7844 36.0407 28.1936 36.6479 27.4715 36.6479H1.7217C0.999594 36.6479 0.425189 36.0407 0.425189 35.3022ZM5.66048 4.23505L5.64407 34.0057H23.5491V4.23505C23.5491 3.20112 23.0075 2.67595 21.99 2.67595H7.20317C6.15283 2.67595 5.66048 3.21753 5.66048 4.23505ZM9.35309 18.1028C8.26993 18.1028 7.53141 17.4464 7.53141 16.4453V6.49984C7.53141 5.49874 8.26993 4.80945 9.35309 4.80945H19.8401C20.9233 4.80945 21.6946 5.49874 21.6946 6.49984V16.4453C21.6946 17.4464 20.9397 18.1028 19.8401 18.1028H9.35309Z" fill="#1B60C8"/>
</svg>
