<svg width="48" height="26" viewBox="0 0 48 26" fill="none" xmlns="http://www.w3.org/2000/svg">
<path d="M1.75141 25.3901C0.471304 25.3901 0.143072 24.4054 0.602597 23.5684C4.36085 16.2324 8.08628 8.91283 11.8445 1.59327C12.0907 1.10092 12.4518 0.821923 13.0262 0.821923H14.0929C14.6673 0.821923 14.9299 1.29786 14.7001 1.83944C11.6804 9.2903 8.64427 16.7576 5.64095 24.2084C5.36196 24.9141 4.86961 25.3901 3.88491 25.3901H1.75141ZM44.2246 25.3901C43.2399 25.3901 42.7475 24.9141 42.4686 24.2084C39.4652 16.7576 36.4291 9.2903 33.4094 1.83944C33.196 1.29786 33.4422 0.821923 34.0166 0.821923H35.0833C35.6577 0.821923 36.0188 1.10092 36.2814 1.59327C40.0232 8.91283 43.7815 16.2324 47.5069 23.5684C47.9664 24.4054 47.6382 25.3901 46.3745 25.3901H44.2246ZM23.6773 5.30229C23.0044 5.30229 22.4792 4.79353 22.4792 4.10424V2.01997C22.4792 1.33068 23.0044 0.821923 23.6773 0.821923H24.3994C25.0723 0.821923 25.5974 1.33068 25.5974 2.01997V4.10424C25.5974 4.79353 25.0723 5.30229 24.3994 5.30229H23.6773ZM23.6773 14.6569C23.0044 14.6569 22.4792 14.1645 22.4792 13.4753V9.996C22.4792 9.30671 23.0044 8.81436 23.6773 8.81436H24.3994C25.0723 8.81436 25.5974 9.30671 25.5974 9.996V13.4753C25.5974 14.1645 25.0723 14.6569 24.3994 14.6569H23.6773ZM23.6773 25.3901C23.0044 25.3901 22.4792 24.8813 22.4792 24.192V19.4819C22.4792 18.7926 23.0044 18.3003 23.6773 18.3003H24.3994C25.0723 18.3003 25.5974 18.7926 25.5974 19.4819V24.192C25.5974 24.8813 25.0723 25.3901 24.3994 25.3901H23.6773Z" fill="#1B60C8"/>
</svg>
