<svg xmlns="http://www.w3.org/2000/svg" width="45" height="34" viewBox="0 0 45 34" fill="none">
    <path d="M5.22211 13.8922L5.25445 13.8992L5.26148 13.8781C5.72766 13.7164 6.22828 13.625 6.75 13.625H27.7594C29.1305 12.6617 30.7055 11.9656 32.3508 11.6211L30.1641 4.13352C29.4539 1.75414 27.2602 0.125 24.7781 0.125H11.2219C8.73984 0.125 6.54891 1.75414 5.83523 4.13352L3.39539 12.268C1.36688 13.4281 0 15.6148 0 18.125V30.5C0 31.1187 0.503438 31.625 1.125 31.625C1.74656 31.625 2.25 31.1187 2.25 30.5V27.125H22.9641C22.7602 26.4008 22.6195 25.5852 22.5492 24.875H2.25V18.125C2.25 16.1773 3.48891 14.518 5.22211 13.8922ZM7.9875 4.78039C8.41641 3.35234 9.73125 2.375 11.2219 2.375H24.7781C26.2687 2.375 27.5836 3.35234 28.0125 4.78039L30.0023 11.4172C29.7563 11.3891 29.5031 11.375 29.25 11.375H6.75C6.49617 11.375 6.24586 11.3891 5.99977 11.4172L7.9875 4.78039ZM7.3125 17C6.38086 17 5.625 17.7523 5.625 18.6875C5.625 19.6227 6.38086 20.375 7.3125 20.375C8.24414 20.375 9 19.6227 9 18.6875C9 17.7523 8.24766 17 7.3125 17ZM34.875 13.625C29.2852 13.625 24.75 18.1602 24.75 23.75C24.75 29.3398 29.2852 33.875 34.875 33.875C40.4648 33.875 45 29.3398 45 23.75C45 18.1602 40.4648 13.625 34.875 13.625ZM34.875 31.625C30.5227 31.625 27 28.1023 27 23.75C27 19.3977 30.5227 15.875 34.875 15.875C39.2273 15.875 42.75 19.3977 42.75 23.75C42.75 28.1023 39.2273 31.625 34.875 31.625Z" fill="#1B60C8"/>
    <path d="M33.9689 25.5551V25.361C33.9689 24.8238 34.0139 24.3956 34.1039 24.0764C34.1939 23.7572 34.3261 23.5005 34.4998 23.3065C34.6734 23.1124 34.8851 22.9345 35.1347 22.7735C35.3337 22.6469 35.5116 22.5183 35.6677 22.3875C35.8238 22.2567 35.9482 22.1147 36.0396 21.9635C36.131 21.8116 36.1767 21.6394 36.1767 21.4467C36.1767 21.2541 36.1324 21.0959 36.0438 20.9538C35.9552 20.8118 35.8343 20.7021 35.681 20.6248C35.5277 20.5474 35.3583 20.5087 35.1713 20.5087C34.9842 20.5087 34.8105 20.5516 34.6474 20.6367C34.4843 20.7218 34.3521 20.8427 34.2495 20.9995C34.1468 21.1556 34.0941 21.3448 34.0905 21.5655H31.9102C31.9193 20.9018 32.074 20.3583 32.3721 19.935C32.6709 19.5117 33.0668 19.1981 33.559 18.9942C34.0519 18.7903 34.5954 18.6884 35.1895 18.6884C35.8406 18.6884 36.4193 18.7896 36.927 18.9914C37.4339 19.1939 37.8326 19.492 38.1237 19.8872C38.4141 20.2823 38.5596 20.7654 38.5596 21.3377C38.5596 21.7139 38.4963 22.0458 38.3698 22.3334C38.2432 22.6209 38.0674 22.8748 37.841 23.0941C37.6153 23.3135 37.3502 23.5132 37.0472 23.6939C36.8102 23.8331 36.6134 23.978 36.4573 24.1298C36.3012 24.2817 36.183 24.4547 36.1043 24.6487C36.0255 24.8428 35.9855 25.0812 35.9855 25.3617V25.5558H33.9668L33.9689 25.5551ZM35.0166 28.6643C34.6755 28.6643 34.3838 28.5441 34.1419 28.3043C33.9 28.0638 33.7812 27.7734 33.784 27.4324C33.7805 27.0977 33.9 26.8109 34.1419 26.5725C34.3838 26.3341 34.6748 26.2146 35.0166 26.2146C35.3583 26.2146 35.6283 26.3341 35.8744 26.5725C36.1205 26.8109 36.2456 27.0977 36.2491 27.4324C36.2456 27.6602 36.1866 27.867 36.0712 28.0533C35.9559 28.2396 35.8062 28.388 35.6213 28.4991C35.4363 28.6102 35.2352 28.665 35.0173 28.665L35.0166 28.6643Z" fill="#1B60C8"/>
  </svg>