<?xml version="1.0"?>
<svg xmlns="http://www.w3.org/2000/svg" id="Line_Expand" data-name="Line Expand" viewBox="0 0 64 64">
	<path d="M33.75,46.457V33.75H56A1.75,1.75,0,0,0,57.75,32V17.543a7.75,7.75,0,1,0-3.5,0V30.25H33.75V17.543a7.75,7.75,0,1,0-3.5,0V30.25H9.75V17.543a7.75,7.75,0,1,0-3.5,0V46.457a7.75,7.75,0,1,0,3.5,0V33.75h20.5V46.457a7.75,7.75,0,1,0,3.5,0ZM51.75,10A4.25,4.25,0,1,1,56,14.25,4.255,4.255,0,0,1,51.75,10Zm-24,0A4.25,4.25,0,1,1,32,14.25,4.255,4.255,0,0,1,27.75,10Zm-24,0A4.25,4.25,0,1,1,8,14.25,4.255,4.255,0,0,1,3.75,10Zm8.5,44A4.25,4.25,0,1,1,8,49.75,4.255,4.255,0,0,1,12.25,54ZM32,58.25A4.25,4.25,0,1,1,36.25,54,4.255,4.255,0,0,1,32,58.25Z" fill="#1B60C8" />
	<path d="M56,46.25A7.75,7.75,0,1,0,63.75,54,7.759,7.759,0,0,0,56,46.25Zm0,12A4.25,4.25,0,1,1,60.25,54,4.255,4.255,0,0,1,56,58.25Z" fill="#1B60C8"/>
</svg>
