<svg width="34" height="31" viewBox="0 0 34 31" fill="none" xmlns="http://www.w3.org/2000/svg">
<path d="M5.59112 30.4643C2.1611 30.4643 0.437884 28.7739 0.437884 25.3767V5.33813C0.437884 1.94093 2.1611 0.250534 5.59112 0.250534H28.0093C31.4394 0.250534 33.1462 1.95734 33.1462 5.33813V25.3767C33.1462 28.7575 31.4394 30.4643 28.0093 30.4643H5.59112ZM5.34495 27.822H28.2227C29.6833 27.822 30.5039 27.0507 30.5039 25.5244V10.0483C30.5039 8.53838 29.6833 7.75063 28.2227 7.75063H5.34495C3.88432 7.75063 3.08015 8.53838 3.08015 10.0483V25.5244C3.08015 27.0507 3.88432 27.822 5.34495 27.822ZM13.6 13.6424C13.0256 13.6424 12.8286 13.4783 12.8286 12.9039V11.9356C12.8286 11.3612 13.0256 11.1806 13.6 11.1806H14.5683C15.1427 11.1806 15.3232 11.3612 15.3232 11.9356V12.9039C15.3232 13.4783 15.1427 13.6424 14.5683 13.6424H13.6ZM19.0486 13.6424C18.4742 13.6424 18.2773 13.4783 18.2773 12.9039V11.9356C18.2773 11.3612 18.4742 11.1806 19.0486 11.1806H20.0169C20.5913 11.1806 20.7883 11.3612 20.7883 11.9356V12.9039C20.7883 13.4783 20.5913 13.6424 20.0169 13.6424H19.0486ZM24.4973 13.6424C23.9229 13.6424 23.7423 13.4783 23.7423 12.9039V11.9356C23.7423 11.3612 23.9229 11.1806 24.4973 11.1806H25.4656C26.04 11.1806 26.2369 11.3612 26.2369 11.9356V12.9039C26.2369 13.4783 26.04 13.6424 25.4656 13.6424H24.4973ZM8.15133 19.009C7.56051 19.009 7.37998 18.8449 7.37998 18.2705V17.3022C7.37998 16.7278 7.56051 16.5636 8.15133 16.5636H9.1032C9.69402 16.5636 9.87455 16.7278 9.87455 17.3022V18.2705C9.87455 18.8449 9.69402 19.009 9.1032 19.009H8.15133ZM13.6 19.009C13.0256 19.009 12.8286 18.8449 12.8286 18.2705V17.3022C12.8286 16.7278 13.0256 16.5636 13.6 16.5636H14.5683C15.1427 16.5636 15.3232 16.7278 15.3232 17.3022V18.2705C15.3232 18.8449 15.1427 19.009 14.5683 19.009H13.6ZM19.0486 19.009C18.4742 19.009 18.2773 18.8449 18.2773 18.2705V17.3022C18.2773 16.7278 18.4742 16.5636 19.0486 16.5636H20.0169C20.5913 16.5636 20.7883 16.7278 20.7883 17.3022V18.2705C20.7883 18.8449 20.5913 19.009 20.0169 19.009H19.0486ZM24.4973 19.009C23.9229 19.009 23.7423 18.8449 23.7423 18.2705V17.3022C23.7423 16.7278 23.9229 16.5636 24.4973 16.5636H25.4656C26.04 16.5636 26.2369 16.7278 26.2369 17.3022V18.2705C26.2369 18.8449 26.04 19.009 25.4656 19.009H24.4973ZM8.15133 24.392C7.56051 24.392 7.37998 24.2114 7.37998 23.637V22.6688C7.37998 22.0944 7.56051 21.9302 8.15133 21.9302H9.1032C9.69402 21.9302 9.87455 22.0944 9.87455 22.6688V23.637C9.87455 24.2114 9.69402 24.392 9.1032 24.392H8.15133ZM13.6 24.392C13.0256 24.392 12.8286 24.2114 12.8286 23.637V22.6688C12.8286 22.0944 13.0256 21.9302 13.6 21.9302H14.5683C15.1427 21.9302 15.3232 22.0944 15.3232 22.6688V23.637C15.3232 24.2114 15.1427 24.392 14.5683 24.392H13.6ZM19.0486 24.392C18.4742 24.392 18.2773 24.2114 18.2773 23.637V22.6688C18.2773 22.0944 18.4742 21.9302 19.0486 21.9302H20.0169C20.5913 21.9302 20.7883 22.0944 20.7883 22.6688V23.637C20.7883 24.2114 20.5913 24.392 20.0169 24.392H19.0486Z" fill="#1B60C8"/>
</svg>
